<svg width="24" height="24" viewBox="0 0 24 24" xmlns="http://www.w3.org/2000/svg" xmlns:xlink="http://www.w3.org/1999/xlink" style="background:#d9d2cb"><title>avatar.white</title><defs><path d="M12 3c-4.962 0-9 4.038-9 9a8.977 8.977 0 0 0 2.921 6.63l.284.254c.019.016.04.029.058.044a9.045 9.045 0 0 0 .64.483 9.165 9.165 0 0 0 1.273.733c.73.339 1.46.572 2.223.71l.06.01c.237.042.477.074.72.096l.088.007c.241.02.486.033.733.033.245 0 .487-.013.727-.032l.092-.007a9.1 9.1 0 0 0 .712-.094l.062-.011a8.919 8.919 0 0 0 2.145-.673l.075-.034a9.045 9.045 0 0 0 1.254-.716c.06-.041.12-.085.18-.128.144-.103.285-.21.422-.322.03-.024.063-.045.093-.07l.3-.25A9.03 9.03 0 0 0 21 12c0-4.962-4.038-9-9-9z" id="a"/></defs><g fill="none" fill-rule="evenodd"><mask id="b" fill="#fff"><use xlink:href="#a"/></mask><use stroke="#FFFFFE" xlink:href="#a"/><path d="M5.488 18v-5.109c0-.275.216-.497.504-.497h3.124M9.176 20.292V8.759c0-.277.215-.502.503-.502h4.661c.278 0 .503.228.503.498v11.432M15.153 11.792h2.915c.279 0 .505.22.505.508V18" stroke="#FFFFFE" mask="url(#b)"/></g></svg>