<svg width="7" height="13" viewBox="0 0 7 13" xmlns="http://www.w3.org/2000/svg"><title>facebook-logo-2</title><path d="M6.713.003L5.043 0c-1.877 0-3.09 1.244-3.09 3.17v1.462H.273a.263.263 0 0 0-.263.263v2.118c0 .145.118.263.263.263h1.68v5.344c0 .145.117.262.262.262h2.192a.263.263 0 0 0 .263-.262V7.276h1.963a.263.263 0 0 0 .263-.263l.001-2.118a.263.263 0 0 0-.263-.263H4.67V3.393c0-.596.141-.898.917-.898h1.126a.263.263 0 0 0 .262-.263V.265a.263.263 0 0 0-.262-.262z" fill="#FFFFFE" fill-rule="evenodd"/></svg>