<svg width="16" height="13" viewBox="0 0 16 13" xmlns="http://www.w3.org/2000/svg"><title>twitter-2</title><path d="M15.924 1.562a6.532 6.532 0 0 1-1.877.514A3.277 3.277 0 0 0 15.484.269a6.54 6.54 0 0 1-2.075.792 3.267 3.267 0 0 0-5.567 2.98A9.275 9.275 0 0 1 1.11.628 3.265 3.265 0 0 0 2.12 4.99a3.254 3.254 0 0 1-1.48-.41v.042a3.269 3.269 0 0 0 2.62 3.203 3.273 3.273 0 0 1-1.475.056 3.27 3.27 0 0 0 3.052 2.269A6.554 6.554 0 0 1 0 11.502a9.246 9.246 0 0 0 5.008 1.468c6.009 0 9.295-4.978 9.295-9.295 0-.141-.003-.282-.01-.422a6.637 6.637 0 0 0 1.63-1.691z" fill="#FFFFFE" fill-rule="evenodd"/></svg>