<svg width="14" height="13" viewBox="0 0 14 13" xmlns="http://www.w3.org/2000/svg"><title>linkedin-letters</title><g fill="#FFFFFE" fill-rule="evenodd"><path d="M.168 4.237h2.916v8.757H.168zM12.655 5.037c-.613-.669-1.423-1.003-2.43-1.003-.372 0-.709.046-1.012.137-.304.091-.56.22-.77.384a3.77 3.77 0 0 0-.499.46c-.117.134-.232.29-.344.467V4.237H4.692l.01.424c.005.283.008 1.155.008 2.616s-.006 3.367-.018 5.718H7.6V8.108c0-.3.032-.54.097-.716.124-.3.31-.552.561-.756.25-.203.561-.305.933-.305.506 0 .879.176 1.118.526.238.35.357.835.357 1.454v4.683h2.908V7.975c0-1.29-.307-2.27-.92-2.938zM1.644.022C1.154.022.759.165.455.45A1.423 1.423 0 0 0 0 1.533c0 .43.147.79.442 1.078.294.289.683.433 1.166.433h.018c.495 0 .894-.144 1.197-.433.304-.289.453-.648.447-1.078A1.474 1.474 0 0 0 2.819.451C2.525.165 2.133.02 1.644.02z"/></g></svg>