<svg width="100" height="100" viewBox="0 0 100 100" xmlns="http://www.w3.org/2000/svg"><title>MindSky logo</title><g fill="#968254" fill-rule="evenodd"><path d="M11.063 99.234h2.039l-.547-13.21-.243-.024-5.698 8.734-.065-.098L.772 86l-.225.024L0 99.234h2.039l.145-8.143.139.209 4.136 6.232h.184l4.238-6.423zM70.252 95.526c0-1.766-.861-2.766-3.292-3.821-1.5-.66-2.312-1.202-2.312-2.178 0-.785.547-1.703 2.093-1.703.924 0 1.95.465 2.586.886l.658-1.811c-.837-.548-2.082-.899-3.189-.899-2.773 0-4.225 1.801-4.225 3.581 0 1.648.915 2.737 3.059 3.641 2.135.902 2.511 1.501 2.511 2.429 0 .865-.541 1.792-2.059 1.792-1.09 0-2.314-.426-3.373-1.171L62 98.119c1.221.787 2.679 1.238 4.009 1.238 2.109 0 4.243-1.316 4.243-3.831M20 99.603h2.021V88H20zM39.475 99.611v-11.61h-2.021v7.26l-.133-.142L30.554 88H30v11.604h2.02v-7.371l7.001 7.378zM49.24 88c-1.09 0-2.022.055-3.218.189l-.022.003v11.393l.022.002c1.204.115 2.086.189 3.329.189 4.968 0 6.738-3.099 6.738-5.998 0-2.666-1.794-5.778-6.849-5.778m.409 9.977c-.69 0-1.1-.012-1.563-.08l-.067-.01v-8.013l.067-.009c.388-.054.856-.081 1.39-.081 2.788 0 4.451 1.492 4.451 3.994 0 2.668-1.559 4.199-4.278 4.199M82.712 99.604h2.509l-5.317-6.029.047-.052L84.97 88h-2.447l-4.503 5.161V88H76v11.604h2.02v-5.507l.138.161zM96.926 88l-2.791 4.861-.067-.117L91.313 88H89l4.086 6.714v4.889h2.02V94.73l.011-.019L99.192 88zM50.082.119c-14.294 0-25.923 11.61-25.923 25.88 0 14.273 11.629 25.883 25.923 25.883 14.293 0 25.923-11.61 25.923-25.882 0-14.271-11.63-25.881-25.923-25.881m24.497 25.88c0 .193-.023.378-.027.568A225.818 225.818 0 0 1 63.262 7.65c.24-.588.466-1.187.693-1.785C70.365 10.28 74.579 17.655 74.579 26m-15.647.398a223.082 223.082 0 0 1-8.478 14.91 231.683 231.683 0 0 1-5.584 8.579 24.398 24.398 0 0 1-4.208-1.316 231.346 231.346 0 0 0 6.973-10.597c3.541-5.711 7.902-13.317 11.936-21.906 1.934 3.48 3.81 6.653 5.494 9.37 2.635 4.25 5.306 7.86 7.321 10.624a24.555 24.555 0 0 1-2.495 4.27 248.352 248.352 0 0 1-7.645-11.558 230.894 230.894 0 0 1-2.43-4.014l-.888 1.63.004.008M54.378 37.91a220.507 220.507 0 0 0 2.353-4.08c2.902 4.678 5.829 8.916 7.88 11.814a24.358 24.358 0 0 1-3.642 2.232 228.371 228.371 0 0 1-6.591-9.966m5.124 10.66c-1.347.562-2.755 1-4.208 1.316a234.857 234.857 0 0 1-4.266-6.482c.261-.414.521-.825.785-1.253.531-.855 1.083-1.762 1.646-2.7a233.93 233.93 0 0 0 6.043 9.12M35.1 25.438a243.697 243.697 0 0 0 2.123-3.503 196.123 196.123 0 0 0 2.184 4.398c-.509.844-1.009 1.666-1.488 2.44-2.827 4.56-5.671 8.606-7.711 11.47a24.443 24.443 0 0 1-2.295-3.903A231.601 231.601 0 0 0 35.1 25.438M27.178 34.6a24.128 24.128 0 0 1-1.367-5.456 229.48 229.48 0 0 0 8.506-13.546 179.592 179.592 0 0 0 2.077 4.598A231.367 231.367 0 0 1 27.178 34.6m5.928-26.192a24.644 24.644 0 0 1 3.096-2.538c2.939 7.485 6.373 14.542 9.71 20.694a228.459 228.459 0 0 1-2.408 4.085c-3.578-6.543-7.296-14.16-10.398-22.241m4.475-3.403a24.618 24.618 0 0 1 3.443-1.708c2.519 6.21 5.348 12.104 8.154 17.389a221.618 221.618 0 0 1-2.333 4.24c-3.202-5.97-6.466-12.754-9.264-19.921m21.565-1.706a24.383 24.383 0 0 1 3.441 1.709C57.625 17.725 51.164 29.246 46.275 37.13a228.976 228.976 0 0 1-7.079 10.746 24.54 24.54 0 0 1-3.616-2.211 247.535 247.535 0 0 0 7.876-11.871c4.684-7.551 10.798-18.42 15.69-30.496m7.279 21.296a227.008 227.008 0 0 1-6.022-10.328 174.293 174.293 0 0 0 2.068-4.71 226.958 226.958 0 0 0 11.883 19.587 24.183 24.183 0 0 1-1.368 5.456 233.905 233.905 0 0 1-6.561-10.005M57.638 2.747c-2.338 5.762-4.948 11.256-7.556 16.23-2.607-4.974-5.217-10.468-7.555-16.23a24.397 24.397 0 0 1 7.555-1.204c2.638 0 5.174.43 7.556 1.204M31.889 9.68a158.79 158.79 0 0 0 1.638 4.086 226.805 226.805 0 0 1-7.914 12.8c-.005-.19-.029-.374-.029-.566 0-6.274 2.399-11.985 6.305-16.32m-.574 32.01a267.092 267.092 0 0 0 7.962-12.072c.321-.517.657-1.072.991-1.621a210.46 210.46 0 0 0 2.275 4.23l-.446.725a245.875 245.875 0 0 1-7.784 11.736 24.671 24.671 0 0 1-2.998-2.997m15.29 8.49a232.331 232.331 0 0 0 3.477-5.283c1.241 1.942 2.405 3.7 3.478 5.284-1.139.162-2.294.275-3.478.275-1.183 0-2.338-.113-3.477-.275m19.273-5.517c-2.046-2.888-4.935-7.074-7.811-11.713l-.443-.725a209.929 209.929 0 0 0 2.273-4.225c.336.555.667 1.095.99 1.616a251.227 251.227 0 0 0 7.985 12.047 24.734 24.734 0 0 1-2.994 3"/></g></svg>